PathFileType	4	(X/Y/Z)	Patient4_TMGait_0pt8_01_right_08.trc.trc
DataRate	CameraRate	NumFrames	NumMarkers	Units	OrigDataRate	OrigDataStartFrame	OrigNumFrames
90.322580645161	90.322580645161	4	33	mm	90.322580645161	124	       141
Frame#	Time	Sacral			L.Shoulder			Chest			R.Shoulder			Neck			R.ASIS			L.ASIS			R.Thigh.Superior			R.Thigh.Lateral			R.Thigh.Inferior			R.Patella			L.Thigh.Superior			L.Thigh.Lateral			L.Thigh.Inferior			L.Patella			L.Shank.Superior			L.Shank.Lateral			L.Shank.Inferior			R.Shank.Superior			R.Shank.Lateral			R.Shank.Inferior			R.Heel			R.Midfoot.Superior			R.Midfoot.Lateral			R.Toe			L.Heel			L.Midfoot.Lateral			L.Midfoot.Superior			L.Toe			L.Elbow			L.Wrist			R.Elbow			R.Wrist			
		X1	Y1	Z1	X2	Y2	Z2	X3	Y3	Z3	X4	Y4	Z4	X5	Y5	Z5	X6	Y6	Z6	X7	Y7	Z7	X8	Y8	Z8	X9	Y9	Z9	X10	Y10	Z10	X11	Y11	Z11	X12	Y12	Z12	X13	Y13	Z13	X14	Y14	Z14	X15	Y15	Z15	X16	Y16	Z16	X17	Y17	Z17	X18	Y18	Z18	X19	Y19	Z19	X20	Y20	Z20	X21	Y21	Z21	X22	Y22	Z22	X23	Y23	Z23	X24	Y24	Z24	X25	Y25	Z25	X26	Y26	Z26	X27	Y27	Z27	X28	Y28	Z28	X29	Y29	Z29	X30	Y30	Z30	X31	Y31	Z31	X32	Y32	Z32	X33	Y33	Z33	

124	10.101785714286	865.872751876670	982.560705972937	455.205259696911	1060.197229692707	1419.463986713389	295.597580147926	1147.417757646870	1342.162217212990	462.491035952205	1048.562322854044	1411.429517254068	630.294165330698	1034.162826049684	1474.018693156495	451.384894641582	1088.884782687197	923.233121900493	584.077904828892	1085.648351216070	943.343680142484	306.504200242474	1165.884346402138	752.551196229046	560.256946362935	1115.377021420204	628.516820210905	630.156739686734	1211.620397634172	597.040862702035	557.914438068353	1241.792607923030	514.075624361060	572.766286353610	1076.701120925800	714.387580711758	329.968965694472	952.061895285313	627.141618106078	266.775630471355	1006.818298624734	528.364362308461	328.407672757758	987.524274356494	460.338323406828	336.278597580714	946.909367984083	397.312866027683	327.595199087328	833.627377668345	305.017321791535	277.757962824800	860.875153028298	184.091599325486	345.008653261239	1229.609348368541	422.307184663543	581.555996566197	1174.332030006035	306.024907748694	637.520420240107	1249.442482079476	223.261628773135	589.886379229086	1162.438047914948	40.043525315339	553.913554142829	1320.025450190335	114.684129756764	602.936424182609	1240.891141349579	40.597390577121	633.786076713677	1442.618337050451	80.073431472870	639.334489886533	712.997685257470	41.174413270948	391.504590805535	780.802758287894	35.850920989862	306.023647906665	867.604941132633	95.209104142072	328.035631541071	992.228251713752	41.082547769774	287.940908666873	1150.151806315301	1114.813237868853	123.625454835659	1402.049320148260	1109.805536664992	164.463452365987	878.233191246539	1109.896731981722	722.326782126802	824.628684083582	855.434766919870	734.031025072180	
125	10.112857142857	868.149494345805	980.815902912938	458.541382944103	1060.199495456461	1417.598190566306	297.787572555884	1148.389751571573	1341.196119202886	464.589167919253	1049.732732808534	1410.371964958785	632.606398053104	1034.795415518771	1472.528315731720	453.679213463143	1091.699407909538	921.633779183865	586.654450729998	1087.748617661430	941.517827659669	309.289170241990	1168.562417424692	750.081950867198	562.668354412400	1116.113354842469	626.313859927960	631.026930627744	1212.455870597797	594.742325187011	559.171602001195	1241.113969928299	511.004859258634	573.114031916929	1078.965856746930	712.623338999917	332.106286793200	954.111390797330	625.362728950550	269.318900514907	1009.482448280325	526.120777983946	330.142250392447	989.985984809020	456.927234737334	337.472013256717	947.002461422461	394.835375058576	328.887483735639	831.027179020073	305.849889046836	278.882594889775	855.177222016994	183.858231492746	345.142670521084	1228.549092917577	419.054546433188	581.700973100937	1172.241819534301	303.195063657259	637.333166364136	1245.954803442304	219.857094928411	589.111464361206	1155.272803413945	39.935374917089	552.740685996205	1314.840775902634	110.046088110753	601.272751143012	1233.563007125733	38.985628786822	632.870383354251	1436.629917310062	72.076680400020	637.971688689120	704.229199337129	43.542732517384	391.054874850027	772.107225211530	36.867671270203	305.840761718434	859.639990181496	95.403713130237	327.660091122198	983.526507827704	40.491145572869	287.785844947143	1150.009052890873	1112.294903289575	126.486756973715	1401.396233143796	1114.601842766731	168.423267675893	877.377380640927	1110.551076798158	724.779110836116	821.997514111010	856.390568483640	735.724038217900	
126	10.123928571429	870.233528723210	979.532784802514	461.868663959290	1060.400296870890	1416.031462632481	299.980511513247	1149.448349172611	1340.511546746937	466.742060346661	1051.019074885511	1409.673917925275	634.953087535839	1035.565631343563	1471.432155474760	456.016555739067	1094.309161433714	920.570129315501	589.401176156636	1089.710587943169	939.967597323334	312.208768215750	1171.292237728165	748.461432323391	565.048432751125	1117.448565327340	625.041773098416	632.173024578673	1213.637362145168	593.266589044687	560.450186088137	1240.958391416587	508.641572125884	573.693725397199	1081.650785608444	711.232730652865	334.485148537822	956.982997167780	623.591346899602	272.010218174945	1013.395418208679	524.007645060525	331.925401937832	993.816759383516	453.483087809991	338.533407045000	948.164855623795	392.409757785755	330.107598970257	829.352746280666	307.170160383235	280.019941974961	850.105654138811	184.081559673551	345.153452004006	1227.737952934799	416.474120724408	581.992107394631	1170.320077266292	301.234363975140	637.666593207674	1242.025509189801	217.033174466545	588.524224672920	1147.009170759262	40.286894013032	551.973366535846	1308.676856669678	105.937211615289	599.836021535617	1225.261028194562	37.858284145868	632.259303356743	1429.697026907398	64.613549786531	636.644065836368	695.732229543754	47.113699034825	390.516965979781	763.554540029175	38.547064936046	305.604472300133	852.081829217527	95.795048792327	327.098242245111	974.795903355007	39.874946198216	287.629253445549	1149.263850908292	1109.535317681713	129.641797564259	1400.112287916478	1118.095186073747	172.386088336971	877.630951779182	1110.759497452430	727.220175482263	820.902571668221	856.796501567261	737.626875164763	
127	10.135000000000	872.101796561167	978.758063555344	465.155408989332	1060.816643128501	1414.846781370739	302.154632962461	1150.576696306184	1340.156212249691	468.932228457487	1052.399330872785	1409.404510866848	637.297737683079	1036.455390241485	1470.794337532763	458.353537147837	1096.667033273496	920.104301914000	592.333108922291	1091.485202758548	938.774225786829	315.243655549693	1173.943378296723	747.698610941978	567.430692139969	1119.246197090597	624.668293685399	633.673086114264	1214.997961554469	592.537788242878	561.813922664108	1241.143784744294	506.973170138900	574.578931548062	1084.729733177163	710.293700510198	337.099482716238	960.710233009316	621.883749347193	274.785295678132	1018.597849579452	522.113591881647	333.716357532311	999.052132760760	450.129963866640	339.398542492373	950.478216352584	390.133272347612	331.186638152959	828.717947220774	309.078338091703	281.128961818799	845.803481762264	184.888921186628	345.009290138450	1227.047322996003	414.566787847393	582.494042769133	1168.505871568544	300.087600063352	638.525396232288	1237.732910455387	214.825573638342	588.166767464456	1138.092929404539	40.898669790741	551.594277799511	1301.754606821573	102.552754129434	598.717287921871	1216.394985877598	37.168278945221	631.956366435182	1422.094544864441	58.193148575131	635.495776709820	687.665979350660	52.132690110679	389.902491434412	755.234918938761	41.080631404390	305.317690190664	845.047104144815	96.440735895258	326.337818479052	966.025931642702	39.233007835238	287.486668563318	1147.877814079624	1106.616116592798	133.112322317108	1398.252058169187	1120.257094051702	176.342233200866	879.043708230632	1110.539745336711	729.649328873087	821.403168982680	856.676530757911	739.753490967087	
